<?xml version="1.0" encoding="UTF-8" standalone="no"?>
<!-- Created with Inkscape (http://www.inkscape.org/) -->

<svg
   width="247mm"
   height="267mm"
   viewBox="0 0 247 267"
   version="1.1"
   id="svg1"
   xml:space="preserve"
   inkscape:version="1.4 (86a8ad7, 2024-10-11)"
   sodipodi:docname="logoZHPGenerator.svg"
   xmlns:inkscape="http://www.inkscape.org/namespaces/inkscape"
   xmlns:sodipodi="http://sodipodi.sourceforge.net/DTD/sodipodi-0.dtd"
   xmlns="http://www.w3.org/2000/svg"
   xmlns:svg="http://www.w3.org/2000/svg"><sodipodi:namedview
     id="namedview1"
     pagecolor="#505050"
     bordercolor="#eeeeee"
     borderopacity="1"
     inkscape:showpageshadow="0"
     inkscape:pageopacity="0"
     inkscape:pagecheckerboard="0"
     inkscape:deskcolor="#505050"
     inkscape:document-units="mm"
     inkscape:zoom="0.70710678"
     inkscape:cx="102.53048"
     inkscape:cy="648.41692"
     inkscape:window-width="1920"
     inkscape:window-height="974"
     inkscape:window-x="-11"
     inkscape:window-y="-11"
     inkscape:window-maximized="1"
     inkscape:current-layer="layer2" /><defs
     id="defs1" /><g
     inkscape:groupmode="layer"
     id="layer2"
     inkscape:label="tło"
     transform="translate(-1.8017532,2.91351)"><path
       style="fill:#fbf9f0;fill-opacity:1;fill-rule:evenodd;stroke:#fbf9f0;stroke-width:2;stroke-linecap:round;stroke-linejoin:round;stroke-dasharray:none;stroke-opacity:1;paint-order:markers fill stroke"
       d="m 55.260289,168.61812 c 0,0 -34.342277,-18.85065 -43.591658,-39.56925 C 2.3141975,108.09495 6.2430596,92.005323 17.094203,78.909115 27.945345,65.81291 37.616308,59.793601 48.766985,58.233064 c 9.98948,-1.398027 19.831399,2.573846 19.831399,2.573846 0,0 -3.692269,-13.599598 29.970186,-43.172087 18.82038,-16.5337191 23.1082,-19.5480117 23.1082,-19.5480117 0,0 19.93022,13.8647857 37.69837,29.2793767 10.90897,9.463974 11.88013,14.873548 11.88013,14.873548 0,0 35.43508,-25.928306 47.8211,-30.965928 12.72203,-5.1742832 24.60491,-10.5904533 24.60491,-10.5904533 0,0 2.13157,32.2583573 -4.27484,57.5364133 -4.97497,19.629951 -6.77669,24.102337 -6.77669,24.102337 0,0 17.40086,27.609345 -4.35783,55.105875 -22.69544,28.6803 -40.36966,30.01006 -40.36966,30.01006 0,0 22.62197,26.56563 7.05619,45.81565 -6.9539,8.59981 -12.59685,12.84652 -26.06724,15.03128 -13.34272,2.16406 -18.02861,-1.57581 -18.02861,-1.57581 0,0 4.11595,5.79975 -5.23848,18.52178 -9.35444,12.72202 -22.35709,16.74444 -22.35709,16.74444 0,0 -14.98517,-4.96318 -22.26356,-17.21216 -7.670635,-12.90912 -8.138357,-18.14761 -8.138357,-18.14761 0,0 -8.418991,12.34785 -18.147601,18.70887 -9.728613,6.36101 -15.715447,4.20949 -15.715447,4.20949 0,0 -3.180508,-7.48354 -0.561268,-14.59291 2.619242,-7.10937 3.648229,-7.95127 3.648229,-7.95127 0,0 -17.305702,-8.51254 -18.521777,-23.76026 -1.237311,-15.514 11.69304,-34.61141 11.69304,-34.61141 z"
       id="path4"
       sodipodi:nodetypes="cssscscscscscscsscscscscscsc" /></g><g
     inkscape:groupmode="layer"
     id="layer3"
     inkscape:label="pióro"
     style="display:inline"
     transform="translate(-1.8017532,2.91351)"><path
       id="path9"
       style="fill:#7a7a7a;fill-opacity:1;fill-rule:evenodd;stroke:#000000;stroke-width:0;stroke-linecap:round;stroke-linejoin:round;stroke-dasharray:none;stroke-opacity:1"
       d="m 235.42666,15.2988 c 0,0 -33.54445,16.43911 -66.62539,45.323332 0.38799,2.327885 0.60302,4.637727 0.6134,6.890019 5.73812,-2.381839 12.32223,-3.974453 19.80293,-3.517615 8.25176,0.503925 15.25744,2.904401 20.9951,6.226493 l 17.61081,-16.131315 c 1.43599,-5.934732 2.69599,-11.542251 3.68195,-16.405717 L 203.62137,65.81303 232.39791,33.283232 C 234.51239,22.289525 235.42666,15.2988 235.42666,15.2988 Z m -11.30473,53.069629 -10.59212,3.971851 c 2.34389,1.646613 4.44886,3.429517 6.26008,5.2927 0.42528,0.437477 0.80039,0.880324 1.1989,1.320849 1.11762,-3.593412 2.17237,-7.139779 3.13314,-10.5854 z m -64.96658,7.507035 c -0.33156,1.512023 -0.67552,3.02611 -1.08624,4.392497 -1.07221,3.567084 -2.37077,6.659171 -3.41168,8.888863 2.15893,-2.459977 5.72866,-5.885906 10.28671,-8.976713 a 5.0005,5.0005 0 0 1 -5.78879,-4.304647 z m -12.33878,6.224427 c -6.03453,6.653757 -11.7734,13.726534 -16.94677,21.220919 l 8.64495,17.49609 -13.92525,-9.3679 c -1.3464,2.20543 -2.62676,4.45066 -3.86436,6.71897 l 15.54427,8.63565 -18.56941,-2.8205 c -1.99692,4.07644 -3.79014,8.25247 -5.37383,12.51396 2.86045,-0.24047 5.80436,-0.37 8.82427,-0.37 6.88649,0 13.39789,0.64674 19.32543,1.87482 22.88098,-27.10448 46.55952,-52.36702 48.81511,-54.767712 -0.41877,-0.04004 -0.80766,-0.103618 -1.24334,-0.130224 -15.81751,-0.965956 -27.85359,15.111222 -27.85359,15.111222 l 0.0357,-0.05271 c -1.55355,2.239284 -4.03657,3.754274 -6.49624,4.089674 -2.45968,0.3354 -4.76492,-0.3245 -6.62492,-1.54668 -1.86001,-1.222167 -3.3805,-3.074008 -4.04885,-5.464779 -0.66835,-2.390771 -0.26317,-5.273473 1.17564,-7.588168 l -0.0822,0.136943 c 0,0 1.28217,-2.276741 2.6634,-5.689575 z m 43.08522,1.198376 c -1.45667,3.285981 -7.20418,15.805799 -17.96169,34.023763 5.32504,0.1424 10.0836,2.12896 13.64671,5.05137 3.99154,3.27384 6.45572,7.34676 8.13284,10.98847 0.14998,0.32566 0.17911,0.57222 0.31626,0.89246 1.38276,-0.94824 2.10801,-1.37553 4.0628,-2.78123 0.8513,-0.61217 1.64839,-1.24768 2.41329,-1.89601 4.39341,-8.3259 8.28465,-16.97554 11.71401,-25.65424 -0.0564,-1.09973 -0.15621,-2.1766 -0.33848,-3.19206 -0.0107,-0.0596 -0.5341,-1.866668 -1.52135,-3.753771 -0.0267,-0.05095 -0.0714,-0.109842 -0.0987,-0.161231 l -10.388,-1.442806 8.1809,-2.020031 c -0.60583,-0.810111 -1.2594,-1.615479 -1.99678,-2.374016 -3.57208,-3.674568 -8.43168,-6.806215 -16.16181,-7.680668 z M 171.9432,136.39218 c -0.22831,0.007 -0.52853,0.0337 -0.95188,0.0708 -3.28458,0.28811 -4.72384,4.34005 -4.72684,4.34805 l -0.002,0.004 c -0.85998,2.6654 -2.84344,4.67455 -5.25188,5.749 0.5436,0.43568 1.07714,0.88479 1.58699,1.36426 3.24034,3.0473 5.99188,7.46265 5.99188,12.83436 0,5.3717 -2.75061,9.78775 -5.99188,12.83591 -2.28426,2.14815 -4.92775,3.82854 -7.79798,5.22862 0.51501,0.59882 0.96924,1.26192 1.32861,1.99988 a 5.0004999,5.0004999 0 0 1 0.0465,0.0982 c 0,0 0.003,0.005 0.003,0.005 10.10442,-6.03989 19.01434,-14.37136 26.83041,-24.15098 -1.55847,-1.06791 -2.63251,-2.46428 -3.22048,-3.62613 -0.81419,-1.60892 -0.9055,-2.30895 -1.00975,-3.26596 l 0.008,0.0765 c 0,0 -0.65004,-4.67266 -2.45514,-8.59224 -0.8864,-1.9247 -2.1293,-3.57562 -2.88458,-4.1951 -0.7798,-0.63958 -0.81833,-0.80419 -1.50327,-0.78393 z m 16.01866,8.37985 c 0.49618,2.11272 0.65148,3.3319 0.68368,3.59771 0.2779,-0.0548 0.48015,-0.13557 0.81855,-0.30282 0.41257,-0.60211 0.81433,-1.21565 1.22009,-1.82521 a 5.0005,5.0005 0 0 1 -2.72232,-1.46968 z m 0.72864,3.84731 c 3e-4,0.003 0.0196,0.10956 0.0196,0.10956 a 5.0005,5.0005 0 0 1 0.01,0.076 c -0.0994,-0.9111 -0.0258,-0.20255 -0.008,-0.16795 0.002,0.003 -0.0192,-0.017 -0.0212,-0.0176 z m -67.54006,6.65231 c -5.21453,0 -10.14222,0.51489 -14.41876,1.32033 -0.49335,2.674 -0.88631,5.37984 -1.18598,8.11268 3.62567,0.75129 7.78566,1.28992 12.22716,1.47382 2.66015,-3.504 5.44044,-7.08246 8.36073,-10.73682 -1.62878,-0.0999 -3.28467,-0.17001 -4.98315,-0.17001 z m 23.0296,3.65972 c -1.2039,1.61318 -2.42565,3.23308 -3.67781,4.86482 1.42476,-0.39882 2.74593,-0.82476 3.88658,-1.27847 1.44907,-0.57639 2.59792,-1.19708 3.50573,-1.75545 -0.90802,-0.55898 -2.05682,-1.17964 -3.50573,-1.75597 -0.0647,-0.0257 -0.14309,-0.0493 -0.20877,-0.0749 z m -6.13813,25.05584 c -4.75988,0.8283 -9.86165,1.29376 -15.197,1.37563 -1.71518,1.96043 -3.46244,3.92369 -5.24775,5.88749 7.46151,0.15968 14.45866,-0.81553 21.0473,-2.68769 -0.59075,-1.48579 -0.77615,-3.05458 -0.60255,-4.57543 z m 9.05113,1.12034 0.046,0.0982 c 0.003,0.006 0.0181,0.002 0.0217,0.007 -0.003,-0.006 -0.0677,-0.10542 -0.0677,-0.10542 z" /><path
       id="path10"
       style="fill:#7a7a7a;fill-opacity:1;fill-rule:evenodd;stroke:#000000;stroke-width:0;stroke-linecap:round;stroke-linejoin:round;stroke-dasharray:none;stroke-opacity:1"
       d="m 147.63667,137.6381 c -0.44376,0.53943 -1.00874,1.23091 -1.46709,1.78852 0.56977,0.16748 1.14506,0.33017 1.70015,0.51005 -0.1642,-0.74989 -0.24755,-1.51818 -0.23306,-2.29857 z m -15.09882,18.45262 c -2.69107,3.30225 -5.37153,6.59724 -8.20208,10.09189 1.82426,-0.0713 3.58853,-0.21108 5.30459,-0.39171 2.26457,-3.1027 4.44933,-6.11656 6.58409,-9.07386 -1.17771,-0.23401 -2.40859,-0.44245 -3.6866,-0.62632 z m -23.11486,28.64321 c -1.01379,1.26955 -1.95781,2.48078 -2.96416,3.74551 -0.0993,0.96034 -0.3429,1.91815 -0.7519,2.84014 -0.007,0.0173 -2.03857,4.70818 -6.66729,8.54056 -0.98762,0.8177 -2.138637,1.57216 -3.377575,2.2655 -0.652292,0.83334 -1.259177,1.62067 -1.900142,2.44274 3.328112,-1.52849 5.497884,-3.06101 5.518524,-3.07578 1.484503,-1.08823 3.183963,-1.62885 4.881363,-1.75597 3.6719,-4.72768 7.38881,-9.57711 11.10526,-14.51952 -1.98699,-0.10865 -3.94007,-0.26476 -5.84408,-0.48318 z m -32.212512,41.62279 c -4.242114,5.80716 -7.584298,10.64535 -9.415446,13.82292 3.389145,-2.04627 8.379122,-6.91143 14.310238,-13.54491 -1.602714,0.0114 -3.24026,-0.0813 -4.894792,-0.27801 z" /></g><g
     inkscape:groupmode="layer"
     id="layer1"
     inkscape:label="lilijka"
     transform="matrix(0.91445256,0,0,0.91445256,13.132624,12.579672)"
     style="display:inline"><path
       style="fill:#85a312;fill-rule:evenodd;stroke:none;stroke-width:3.28065;stroke-linecap:round;stroke-linejoin:round;stroke-dasharray:none;stroke-opacity:1;paint-order:markers fill stroke"
       d="m 178.47595,179.92432 a 5.0005,5.0005 0 0 0 -5.65625,5.375 c 0,0 0.17239,2.95872 -0.86133,5.73828 -1.03372,2.77956 -2.17032,4.95066 -7.6582,5.25 -6.06821,0.33099 -9.56071,-1.52842 -11.83594,-3.36328 -2.27523,-1.83487 -2.97656,-3.35743 -2.97656,-3.35743 a 5,5 0 0 0 -6.6836,-2.30664 5,5 0 0 0 -2.30468,6.68555 c 0,0 1.81116,3.63564 5.6875,6.76172 3.87633,3.12608 10.17433,6.02916 18.6582,5.56641 6.73421,-0.36732 11.47119,-3.7978 14.26758,-7.67579 1.65086,3.99267 2.9897,8.12386 2.95312,9.11133 -0.15152,4.09105 -4.1958,11.27009 -20.46679,13.21289 -7.77784,0.9287 -12.96721,-0.94436 -16.3711,-2.92773 -3.40389,-1.98337 -4.66601,-3.79102 -4.66601,-3.79102 a 5.0005,5.0005 0 0 0 -8.95704,3.83399 c 0,0 1.83246,13.35528 -1.32812,20.6289 -1.5762,3.62741 -5.38783,7.84978 -8.85742,10.89649 -2.04424,1.79508 -2.58587,2.06553 -3.76367,2.90625 -0.48437,-0.36744 -0.30941,-0.14859 -1.03321,-0.77149 -2.40951,-2.0736 -5.88384,-5.55952 -9.8164,-11.0664 -7.045062,-9.86544 -3.60938,-20.91602 -3.60938,-20.91602 a 5.0005,5.0005 0 0 0 -7.72653,-5.5332 c 0,0 -5.457099,3.96178 -12.99414,6.21094 -7.537041,2.24915 -16.252893,2.77764 -24.246094,-3.6836 -2.528111,-2.04357 -3.487736,-4.1893 -3.84375,-6.89648 -0.356014,-2.70718 0.130414,-5.95822 1.095703,-9.06446 0.168161,-0.54112 0.394329,-1.01201 0.583984,-1.53515 2.65643,3.58486 6.900224,6.98537 13.123047,8.51172 8.449142,2.07243 15.289406,-0.63121 19.296875,-3.94922 4.00747,-3.31801 5.779297,-7.34375 5.779297,-7.34375 a 5,5 0 0 0 -2.539062,-6.59961 5,5 0 0 0 -6.59961,2.53906 c 0,0 -0.873485,1.92596 -3.017578,3.70117 -2.144093,1.77522 -4.963334,3.30661 -10.537109,1.93946 -5.585733,-1.37009 -7.482156,-4.06983 -8.623047,-6.6543 -1.140891,-2.58447 -1.066406,-4.68945 -1.066406,-4.68945 A 5.0005,5.0005 0 0 0 52.786527,183.604 c 0,0 -4.364382,6.16591 -6.853516,14.17578 -1.244567,4.00494 -2.086873,8.57625 -1.460938,13.33594 0.625936,4.75969 2.960569,9.72537 7.470704,13.3711 11.070565,8.9488 24.025178,8.28559 33.392578,5.49023 2.65239,-0.79151 5.001966,-1.74879 7.132812,-2.72266 0.129517,5.55524 1.454302,12.5403 6.201171,19.1875 4.392382,6.15084 8.418542,10.2446 11.429662,12.83594 3.01112,2.59134 5.32031,3.84571 5.32031,3.8457 a 5.0005,5.0005 0 0 0 5.0332,-0.22656 c 0,0 3.53089,-2.27665 7.56641,-5.82031 4.03552,-3.54366 8.78354,-8.34055 11.42773,-14.42578 2.18192,-5.02136 2.72457,-10.35345 2.79883,-15.02149 4.95084,2.4283 11.79334,4.26693 20.53906,3.22266 19.18317,-2.29052 28.8958,-12.57503 29.27344,-22.77148 0.2195,-5.92643 -2.56493,-11.45465 -5.02539,-16.54883 -2.46046,-5.09419 -4.94336,-9.22852 -4.94336,-9.22852 a 5.0005,5.0005 0 0 0 -3.61328,-2.3789 z"
       id="path2" /><path
       style="fill:#85a312;fill-rule:evenodd;stroke:none;stroke-width:3.28065;stroke-linecap:round;stroke-linejoin:round;stroke-dasharray:none;stroke-opacity:1;paint-order:markers fill stroke"
       d="m 116.15368,143.76025 c -11.97172,0 -22.822097,1.87634 -31.126919,5.17969 -4.152411,1.65168 -7.693621,3.64503 -10.451172,6.23828 -2.757551,2.59326 -4.828125,6.08029 -4.828125,10.05274 0,3.97244 2.070574,7.46143 4.828125,10.05468 2.757551,2.59326 6.298761,4.58661 10.451172,6.23829 8.304822,3.30335 19.155199,5.17773 31.126919,5.17773 11.97173,0 22.82213,-1.87438 31.12696,-5.17773 4.15241,-1.65168 7.69362,-3.64503 10.45117,-6.23829 2.75755,-2.59325 4.83008,-6.08224 4.83008,-10.05468 0,-3.97245 -2.07253,-7.45948 -4.83008,-10.05274 -2.75755,-2.59325 -6.29876,-4.5866 -10.45117,-6.23828 -8.30483,-3.30335 -19.15523,-5.17969 -31.12696,-5.17969 z m 0,10 c 10.89689,0 20.74997,1.81298 27.43164,4.47071 3.34084,1.32886 5.86378,2.88471 7.29688,4.23242 1.43309,1.34771 1.67969,2.19187 1.67969,2.76758 0,0.5757 -0.2466,1.42182 -1.67969,2.76953 -1.4331,1.34771 -3.95604,2.9016 -7.29688,4.23047 -6.68167,2.65772 -16.53475,4.4707 -27.43164,4.4707 -10.89689,0 -20.749937,-1.81298 -27.431607,-4.4707 -3.340834,-1.32887 -5.863779,-2.88276 -7.296875,-4.23047 -1.433095,-1.34771 -1.677734,-2.19383 -1.677734,-2.76953 0,-0.57571 0.244639,-1.41987 1.677734,-2.76758 1.433096,-1.34771 3.956041,-2.90356 7.296875,-4.23242 6.68167,-2.65773 16.534717,-4.47071 27.431607,-4.47071 z"
       id="path3" /><path
       style="display:inline;fill:#85a312;fill-rule:evenodd;stroke:none;stroke-width:3.28065;stroke-linecap:round;stroke-linejoin:round;stroke-dasharray:none;stroke-opacity:1;paint-order:markers fill stroke"
       d="m 116.93884,4.2426886 c -1.09326,0.0097 -2.15321,0.3774208 -3.01758,1.046875 0,0 -13.7588,10.6912644 -34.011687,33.9726584 C 69.935427,50.72783 68.875957,63.103445 70.759183,72.926284 68.609805,71.582286 66.360232,70.2808 63.90762,69.150894 56.698358,65.829621 48.0558,63.740415 38.864652,65.445816 c -9.191149,1.7054 -18.611324,7.258286 -27.181641,17.933593 -7.5732433,9.433337 -9.6799274,19.628441 -8.066408,28.742171 1.6135195,9.11373 6.546552,17.07628 12.154299,23.72266 11.215492,13.29275 25.705078,21.76172 25.705078,21.76172 2.886914,1.70405 6.599971,0.1406 7.398437,-3.11524 0,0 1.108692,-4.48484 3.574219,-9.58594 2.465527,-5.10109 6.320167,-10.30352 10.412109,-12.09375 1.923318,-0.84145 2.933966,-0.70899 4.117188,-0.2539 1.183222,0.45508 2.527938,1.51846 3.71875,2.92578 2.381624,2.81464 3.804687,6.45508 3.804687,6.45508 0.957911,2.58987 3.833916,3.91289 6.423828,2.95508 2.588828,-0.95792 3.911605,-3.83254 2.955079,-6.42188 0,0 -1.756526,-4.96545 -5.548829,-9.44726 -1.896151,-2.24091 -4.386607,-4.49996 -7.763671,-5.79883 -3.377065,-1.29887 -7.651324,-1.35396 -11.714844,0.42383 -7.881732,3.44825 -12.448159,10.78006 -15.408203,16.90429 -0.903321,1.86894 -1.377027,3.32257 -1.984375,4.92774 -4.642559,-3.18201 -11.40645,-8.21367 -18.046875,-16.08399 -4.904392,-5.81275 -8.782788,-12.42916 -9.949219,-19.01758 C 12.29783,103.79098 13.442051,97.159984 19.479886,89.639175 26.90565,80.389539 34.041794,76.5112 40.68887,75.277847 c 6.647076,-1.233353 13.124827,0.232217 19.035157,2.955078 11.820659,5.445722 20.478515,15.714844 20.478515,15.714844 9e-6,1e-5 0.0059,0.0078 0.0059,0.0078 4.26747,4.981288 11.801716,-1.262847 7.699218,-6.380859 0,0 -0.0058,-0.0078 -0.0059,-0.0078 0,0 -4.522499,-5.504541 -6.837891,-13.550781 -2.315391,-8.04624 -2.624621,-17.828085 6.390625,-28.191406 16.561696,-19.038248 26.336196,-27.331421 29.699186,-30.09375 2.76889,2.177189 6.87045,5.496019 12.35157,10.52539 8.31488,7.629592 17.64178,17.662681 21.52734,25.595704 7.34215,14.990209 -4.99219,36.316406 -4.99219,36.316406 -3.43224,5.521658 4.64952,10.832043 8.35547,5.490234 0,0 14.31823,-20.086633 35.24609,-18.808594 11.00478,0.672048 18.31448,5.142525 23.28711,10.257813 4.97263,5.115288 7.43097,11.275252 7.83203,13.509766 2.15374,11.999388 -2.16168,28.159358 -17.26953,39.023418 -4.94314,3.55462 -8.04904,5.6247 -10.39843,7.11719 -0.60378,-2.21236 -1.36925,-4.64179 -2.54883,-7.20312 -1.62638,-3.5315 -3.90542,-7.21444 -7.39453,-10.07618 -3.48912,-2.86174 -8.36274,-4.71125 -13.84375,-4.23046 -13.97855,1.22618 -18.54297,15.42187 -18.54297,15.42187 -0.84697,2.62935 0.59875,5.44731 3.22851,6.29297 2.62818,0.84586 5.44451,-0.59859 6.29102,-3.22656 0,0 2.54693,-7.8807 9.89648,-8.52539 2.98,-0.26141 4.8132,0.51077 6.62891,2 1.81571,1.48922 3.43807,3.88645 4.6543,6.52734 2.43244,5.28178 3.14453,11.00781 3.14453,11.00781 0.006,0.0502 0.36427,3.08118 3.2793,4.1582 1.38854,0.51304 2.27395,0.34219 2.91993,0.22071 1.29196,-0.24297 2.04701,-0.63384 3.33007,-1.3125 2.56613,-1.35733 6.84752,-4.04983 15.19532,-10.05274 18.19393,-13.08327 24.11108,-33.08754 21.27148,-48.908183 -0.90855,-5.061944 -4.06413,-12.090318 -10.5039,-18.714844 -6.43978,-6.624526 -16.34186,-12.444868 -29.84571,-13.269531 -11.1091,-0.67842 -20.35145,3.045659 -27.54687,7.660156 1.47717,-7.694422 1.47537,-16.563069 -2.69336,-25.074219 C 154.91837,37.051962 144.97715,26.879535 136.26696,18.887222 127.55678,10.894909 119.974,5.2368292 119.974,5.2368292 119.09815,4.5825785 118.03203,4.2333797 116.93884,4.2426886 Z"
       id="path1"
       sodipodi:nodetypes="ccscsssssccsssscccsssscsssssccccsscssccsssscssscccssscssssssscsscc" /></g></svg>
